PathFileType	4	(X/Y/Z)	RBDS022static.trc
DataRate	CameraRate	NumFrames	NumMarkers	Units	OrigDataRate	OrigDataStartFrame	OrigNumFrames
150.000000	150.000000	4	48	mm	150.000000	112	150
Frame#	Time	L.Ankle			L.Ankle.Medial			L.ASIS			L.GTR			L.Heel.Bottom			L.Heel.Lateral			L.Heel.Top			L.HF			L.Iliac.Crest			L.Knee			L.Knee.Medial			L.MT1			L.MT2			L.MT5			L.PSIS			L.Shank.Bottom.Lateral			L.Shank.Bottom.Medial			L.Shank.Top.Lateral			L.Shank.Top.Medial			L.Thigh.Bottom.Lateral			L.Thigh.Bottom.Medial			L.Thigh.Top.Lateral			L.Thigh.Top.Medial			L.TT			R.Ankle			R.Ankle.Medial			R.ASIS			R.GTR			R.Heel.Bottom			R.Heel.Lateral			R.Heel.Top			R.HF			R.Iliac.Crest			R.Knee			R.Knee.Medial			R.MT1			R.MT2			R.MT5			R.PSIS			R.Shank.Bottom.Lateral			R.Shank.Bottom.Medial			R.Shank.Top.Lateral			R.Shank.Top.Medial			R.Thigh.Bottom.Lateral			R.Thigh.Bottom.Medial			R.Thigh.Top.Lateral			R.Thigh.Top.Medial			R.TT			
		X1	Y1	Z1	X2	Y2	Z2	X3	Y3	Z3	X4	Y4	Z4	X5	Y5	Z5	X6	Y6	Z6	X7	Y7	Z7	X8	Y8	Z8	X9	Y9	Z9	X10	Y10	Z10	X11	Y11	Z11	X12	Y12	Z12	X13	Y13	Z13	X14	Y14	Z14	X15	Y15	Z15	X16	Y16	Z16	X17	Y17	Z17	X18	Y18	Z18	X19	Y19	Z19	X20	Y20	Z20	X21	Y21	Z21	X22	Y22	Z22	X23	Y23	Z23	X24	Y24	Z24	X25	Y25	Z25	X26	Y26	Z26	X27	Y27	Z27	X28	Y28	Z28	X29	Y29	Z29	X30	Y30	Z30	X31	Y31	Z31	X32	Y32	Z32	X33	Y33	Z33	X34	Y34	Z34	X35	Y35	Z35	X36	Y36	Z36	X37	Y37	Z37	X38	Y38	Z38	X39	Y39	Z39	X40	Y40	Z40	X41	Y41	Z41	X42	Y42	Z42	X43	Y43	Z43	X44	Y44	Z44	X45	Y45	Z45	X46	Y46	Z46	X47	Y47	Z47	X48	Y48	Z48	

113	0.7466666666666667	707.448486328125	106.528694152832	1036.194702148438	725.9356689453125	126.576301574707	1120.87646484375	844.4243774414063	1006.060791015625	1098.373413085938	764.6222534179688	903.2898559570313	1034.583129882813	636.0166015625	38.48007202148438	1087.003051757813	666.4120483398438	60.86435317993164	1041.656860351563	643.7601318359375	84.06210327148438	1088.234985351563	740.2054443359375	471.6745910644531	1039.59716796875	758.3062133789063	1076.964965820313	1049.448608398438	746.4961547851563	540.470947265625	1043.601928710938	744.0406494140625	519.7785034179688	1168.377807617188	854.3535766601563	57.88071060180664	1123.179321289063	861.6336059570313	68.00632476806641	1076.376342773438	821.2850341796875	47.041015625	1010.192565917969	670.8084716796875	1030.222045898438	1171.985595703125	696.093505859375	190.7344360351563	1030.0263671875	658.16064453125	192.3164672851563	1070.23046875	689.4047241210938	270.4351196289063	1020.931091308594	652.4966430664063	272.9492797851563	1060.092407226563	744.7186279296875	646.157958984375	1030.970947265625	686.1206665039063	654.5485229492188	1074.174682617188	749.0204467773438	755.1046142578125	1018.321594238281	695.253662109375	762.6244506835938	1062.166015625	790.7039184570313	446.8524780273438	1091.1767578125	700.9877319335938	108.4325637817383	1415.225952148438	725.042724609375	128.7297515869141	1330.750854492188	836.3939819335938	1006.531066894531	1336.723266601563	765.7388916015625	908.5216674804688	1393.458251953125	631.3130493164063	40.0150032043457	1367.377685546875	663.12451171875	60.54087829589844	1411.371948242188	638.9252319335938	83.48458862304688	1366.949829101563	750.4078369140625	473.795166015625	1400.381103515625	767.6196899414063	1074.111328125	1377.0068359375	757.4114990234375	535.8931884765625	1395.683959960938	755.74609375	519.90966796875	1271.625610351563	840.68896484375	56.18025970458984	1320.01318359375	857.8518676757813	71.12153625488281	1373.999633789063	823.5820922851563	49.16022491455078	1435.561889648438	672.5846557617188	1030.772705078125	1257.199951171875	687.0718383789063	187.8968505859375	1416.528442382813	655.65478515625	195.1386413574219	1376.779296875	693.6921997070313	272.2388610839844	1425.968994140625	657.7643432617188	275.6050109863281	1386.113891601563	757.142333984375	636.4352416992188	1406.326416015625	697.2739868164063	641.1355590820313	1366.9462890625	760.1556396484375	746.852294921875	1413.453002929688	701.60791015625	750.5718383789063	1377.98193359375	799.2952880859375	449.2218017578125	1357.909423828125	
114	0.7533333333333334	707.44287109375	106.5242233276367	1036.205078125	725.9296264648438	126.5716781616211	1120.891967773438	844.4109497070313	1006.066772460938	1098.382690429688	764.616943359375	903.2952880859375	1034.593505859375	636.0285034179688	38.47359466552734	1087.008666992188	666.4042358398438	60.86101531982422	1041.660888671875	643.7627563476563	84.05936431884766	1088.23681640625	740.1953125	471.6805725097656	1039.603759765625	758.2611694335938	1076.964477539063	1049.475830078125	746.4911499023438	540.4613037109375	1043.612548828125	744.0416259765625	519.7672729492188	1168.387939453125	854.3582763671875	57.86875915527344	1123.181884765625	861.6372680664063	68.0169677734375	1076.4228515625	821.2932739257813	47.03349685668945	1010.191284179688	670.8026123046875	1030.21533203125	1171.990478515625	696.09521484375	190.7310333251953	1030.035522460938	658.1593627929688	192.3096618652344	1070.235229492188	689.4078369140625	270.4280395507813	1020.937744140625	652.4909057617188	272.9439697265625	1060.094482421875	744.701171875	646.149169921875	1030.99609375	686.113525390625	654.5424194335938	1074.191650390625	749.0183715820313	755.0901489257813	1018.345886230469	695.2529296875	762.6271362304688	1062.183837890625	790.710205078125	446.8497009277344	1091.185546875	700.988037109375	108.4323501586914	1415.226806640625	725.0471801757813	128.7371368408203	1330.743896484375	836.394775390625	1006.532165527344	1336.73486328125	765.73291015625	908.525634765625	1393.46142578125	631.3113403320313	39.99687957763672	1367.375610351563	663.1304321289063	60.54581832885742	1411.372802734375	638.931396484375	83.49580383300781	1366.954345703125	750.4080200195313	473.789306640625	1400.365356445313	767.6217041015625	1074.1220703125	1377.015258789063	757.4042358398438	535.8968505859375	1395.682495117188	755.7405395507813	519.909912109375	1271.621826171875	840.7001953125	56.16493225097656	1320.020751953125	857.8522338867188	71.11996459960938	1374.004760742188	823.585693359375	49.15110015869141	1435.563354492188	672.5858154296875	1030.766235351563	1257.197875976563	687.0745239257813	187.90087890625	1416.541137695313	655.658935546875	195.1380462646484	1376.784423828125	693.7010498046875	272.2152404785156	1425.953125	657.7652587890625	275.6043090820313	1386.1142578125	757.14111328125	636.4274291992188	1406.318969726563	697.28271484375	641.130615234375	1366.94091796875	760.1514282226563	746.8489990234375	1413.451782226563	701.5977172851563	750.5733642578125	1377.982666015625	799.2991943359375	449.2101135253906	1357.909423828125	
115	0.76	707.456298828125	106.5287704467773	1036.218139648438	725.9342041015625	126.5710067749023	1120.890014648438	844.4002075195313	1006.084167480469	1098.384765625	764.6106567382813	903.2978515625	1034.59619140625	636.0213623046875	38.47833633422852	1087.004150390625	666.4095458984375	60.86875915527344	1041.655029296875	643.7628173828125	84.05577087402344	1088.242797851563	740.2119750976563	471.6654052734375	1039.618286132813	758.2050170898438	1076.953491210938	1049.483764648438	746.5001220703125	540.462890625	1043.627685546875	744.0391235351563	519.7721557617188	1168.388427734375	854.357666015625	57.87373352050781	1123.191162109375	861.63134765625	67.99260711669922	1076.384033203125	821.2896118164063	47.03879547119141	1010.193054199219	670.7909545898438	1030.214965820313	1171.989013671875	696.10595703125	190.7205657958984	1030.043090820313	658.1583251953125	192.3034515380859	1070.237548828125	689.41455078125	270.4256591796875	1020.957763671875	652.4866943359375	272.9362182617188	1060.103759765625	744.7095947265625	646.141357421875	1031.0126953125	686.1068725585938	654.543212890625	1074.197875976563	749.0093383789063	755.09716796875	1018.362976074219	695.24072265625	762.6224365234375	1062.207153320313	790.7125854492188	446.8506164550781	1091.212890625	700.9990234375	108.4244232177734	1415.215698242188	725.0662841796875	128.7238616943359	1330.745849609375	836.3869018554688	1006.53759765625	1336.73974609375	765.7330322265625	908.523193359375	1393.467407226563	631.317626953125	40.01776504516602	1367.375854492188	663.1245727539063	60.54565048217773	1411.370239257813	638.9299926757813	83.482177734375	1366.94921875	750.402587890625	473.7876281738281	1400.359008789063	767.6110229492188	1074.1220703125	1377.016967773438	757.39990234375	535.8939208984375	1395.684326171875	755.7383422851563	519.9112548828125	1271.632080078125	840.693603515625	56.16257476806641	1320.018432617188	857.851806640625	71.12923431396484	1374.01611328125	823.585693359375	49.15733337402344	1435.56298828125	672.5827026367188	1030.766967773438	1257.207885742188	687.0726928710938	187.9043884277344	1416.535034179688	655.6600341796875	195.14306640625	1376.775268554688	693.6983032226563	272.2352294921875	1425.972045898438	657.7645263671875	275.6057739257813	1386.11083984375	757.146240234375	636.4309692382813	1406.327758789063	697.2763061523438	641.13232421875	1366.94091796875	760.1532592773438	746.84619140625	1413.451538085938	701.611328125	750.5682983398438	1377.994873046875	799.3095092773438	449.2125549316406	1357.9130859375	
116	0.7666666666666667	707.4512329101563	106.5268173217773	1036.210083007813	725.9296264648438	126.5640640258789	1120.896362304688	844.4005737304688	1006.07568359375	1098.37890625	764.5908813476563	903.2874145507813	1034.607177734375	636.0151977539063	38.47938919067383	1087.0048828125	666.4100341796875	60.86255645751953	1041.659912109375	643.7650146484375	84.05246734619141	1088.245239257813	740.2069702148438	471.6654052734375	1039.635375976563	758.176025390625	1076.94873046875	1049.493774414063	746.4798583984375	540.4614868164063	1043.647705078125	744.0072631835938	519.7747802734375	1168.410766601563	854.3533935546875	57.86729431152344	1123.18896484375	861.633544921875	68.02108764648438	1076.423095703125	821.2911376953125	47.0356559753418	1010.19677734375	670.7886962890625	1030.21240234375	1172.011596679688	696.1102905273438	190.7199859619141	1030.0478515625	658.1668090820313	192.3035736083984	1070.241088867188	689.4246215820313	270.4159851074219	1020.970275878906	652.4808349609375	272.9356994628906	1060.1142578125	744.7156982421875	646.118408203125	1031.014282226563	686.0948486328125	654.545166015625	1074.228759765625	749.0062255859375	755.0921630859375	1018.3798828125	695.2478637695313	762.6168212890625	1062.228271484375	790.700927734375	446.8403625488281	1091.222412109375	700.9959106445313	108.4301223754883	1415.216918945313	725.0552978515625	128.7228851318359	1330.748779296875	836.3922729492188	1006.540161132813	1336.737915039063	765.740478515625	908.5132446289063	1393.469482421875	631.31201171875	40.00918960571289	1367.376098632813	663.1304931640625	60.53972625732422	1411.369995117188	638.9260864257813	83.49199676513672	1366.955688476563	750.387939453125	473.787841796875	1400.3701171875	767.6067504882813	1074.12255859375	1377.027221679688	757.3947143554688	535.8880004882813	1395.684326171875	755.7445678710938	519.9073486328125	1271.610107421875	840.6865234375	56.15680313110352	1320.013061523438	857.85400390625	71.12079620361328	1374.013793945313	823.5816040039063	49.15056610107422	1435.564697265625	672.5750732421875	1030.766845703125	1257.21044921875	687.0726928710938	187.9068603515625	1416.537353515625	655.6642456054688	195.1391906738281	1376.78125	693.7081298828125	272.2031555175781	1425.95263671875	657.7741088867188	275.5980529785156	1386.11669921875	757.1411743164063	636.4326171875	1406.322875976563	697.2789306640625	641.1322021484375	1366.941162109375	760.1552734375	746.8396606445313	1413.462890625	701.6143798828125	750.5623779296875	1377.990478515625	799.2854614257813	449.2100524902344	1357.913452148438	
